<svg xmlns="http://www.w3.org/2000/svg" width="16" height="11" viewBox="0 0 16 11" fill="none">
<path d="M10.7807 10.8346C10.5552 11.0551 10.2 11.0551 9.97449 10.8346C9.75655 10.6214 9.75655 10.2667 9.97449 10.0541L14.0625 6.05618L0.57254 6.05619C0.258074 6.05619 5.00103e-07 5.81175 4.73218e-07 5.50422C4.46333e-07 5.19669 0.258074 4.94431 0.57254 4.94431L14.0625 4.94431L9.97449 0.953887C9.75655 0.7333 9.75655 0.378077 9.97449 0.165439C10.2 -0.0551467 10.5552 -0.0551467 10.7807 0.165439L15.8365 5.10975C16.0545 5.32288 16.0545 5.67761 15.8365 5.89025L10.7807 10.8346Z" fill="#00A54D"/>
</svg>